<svg id="icon" viewBox="0 0 256 256" version="1.1" xmlns="http://www.w3.org/2000/svg" xmlns:xlink="http://www.w3.org/1999/xlink">
<defs>
    <clipPath id="icon-bubble-mask" clipPathUnits="objectBoundingBox">
        <path d="M41.6969487,124.026456 C30.0889845,114.878649 23.1213873,103.17255 23.1213873,90.4136809 C23.1213873,61.1362728 59.8093762,37.4022441 105.066304,37.4022441 C150.323232,37.4022441 187.011221,61.1362728 187.011221,90.4136809 C187.011221,119.691089 150.323232,143.425118 105.066304,143.425118 C93.912316,143.425118 83.2788238,141.983462 73.5867827,139.372472 L66.5009556,146.206206 C62.6508003,149.919383 58.1381119,153.279632 53.4342869,155.927536 C47.1994165,158.989423 41.0426011,160.659947 34.9512744,161.16967 C35.2948967,160.544948 35.6113103,159.912092 35.9509881,159.286387 C43.0509631,146.207835 44.9662833,134.454525 41.6969487,124.026456 Z" fill="#FFF" />
    </clipPath>
</defs>

<g class="logo" transform="translate(0, 15) scale(1.23)" stroke="none" stroke-width="1" fill="none" fill-rule="evenodd">
    <path class="baloon" fill="#145a7d" fill-rule="evenodd"  d="M6 24.66L209.17 24.66C212.39 24.66 215 27.27 215 30.49L215 149.17C215 152.39 212.39 155 209.17 155L6 155C2.78 155 0.17 152.39 0.17 149.17L0.17 30.49C0.17 27.27 2.78 24.66 6 24.66ZM38.51 114.95L35.8 114.95L35.8 119.99L30.71 119.99L30.71 114.95L27.99 114.95L27.99 127.8L30.71 127.8L30.71 122.26L35.8 122.26L35.8 127.8L38.51 127.8L38.51 114.95ZM50.23 127.8L50.23 114.95L47.51 114.95L47.51 127.8L50.23 127.8ZM61.94 117.19L63.18 117.19C63.92 117.19 64.47 117.34 64.82 117.64C65.17 117.95 65.34 118.42 65.34 119.06C65.34 119.69 65.13 120.17 64.72 120.5C64.3 120.83 63.67 121 62.84 121L61.94 121L61.94 117.19ZM66.87 115.96C66.06 115.29 64.88 114.95 63.32 114.95L59.22 114.95L59.22 127.8L61.94 127.8L61.94 123.23L63.11 123.23C64.7 123.23 65.93 122.87 66.79 122.13C67.66 121.4 68.09 120.34 68.09 118.96C68.09 117.63 67.68 116.63 66.87 115.96ZM84.2 127.8L84.2 125.55L78.99 125.55L78.99 114.95L76.27 114.95L76.27 127.8L84.2 127.8ZM102.27 116.46C101.23 115.32 99.72 114.75 97.75 114.75C95.77 114.75 94.26 115.31 93.2 116.44C92.14 117.57 91.62 119.2 91.62 121.34C91.62 123.48 92.14 125.12 93.2 126.26C94.25 127.41 95.76 127.98 97.73 127.98C99.7 127.98 101.21 127.41 102.26 126.26C103.32 125.12 103.84 123.49 103.84 121.36C103.84 119.23 103.32 117.59 102.27 116.46ZM95.3 118.11C95.85 117.38 96.66 117.02 97.75 117.02C99.91 117.02 100.99 118.47 100.99 121.36C100.99 124.25 99.9 125.69 97.73 125.69C96.65 125.69 95.83 125.33 95.29 124.6C94.74 123.88 94.47 122.8 94.47 121.36C94.47 119.92 94.75 118.84 95.3 118.11ZM119.2 114.95L119.2 122.8C119.2 123.8 119 124.53 118.6 124.99C118.2 125.46 117.55 125.69 116.66 125.69C115.75 125.69 115.09 125.46 114.69 125C114.29 124.54 114.09 123.81 114.09 122.82L114.09 114.95L111.38 114.95L111.38 123.23C111.38 124.7 111.83 125.86 112.75 126.71C113.66 127.55 114.94 127.98 116.59 127.98C117.69 127.98 118.64 127.79 119.44 127.41C120.24 127.03 120.86 126.48 121.28 125.76C121.7 125.05 121.92 124.22 121.92 123.27L121.92 114.95L119.2 114.95ZM142.21 114.95L139.76 114.95L139.76 121.03C139.76 121.73 139.8 122.91 139.89 124.58L139.83 124.58L134.25 114.95L130.82 114.95L130.82 127.8L133.25 127.8L133.25 121.76C133.25 121.02 133.19 119.8 133.08 118.08L133.16 118.08L138.75 127.8L142.21 127.8L142.21 114.95ZM156.07 122.85L158.5 122.85L158.5 125.53C157.92 125.65 157.34 125.71 156.77 125.71C155.68 125.71 154.85 125.34 154.28 124.61C153.71 123.87 153.43 122.81 153.43 121.41C153.43 120.08 153.78 119.01 154.49 118.22C155.2 117.43 156.14 117.04 157.32 117.04C158.33 117.04 159.31 117.27 160.24 117.74L161.15 115.56C159.92 115.03 158.65 114.77 157.34 114.77C155.23 114.77 153.59 115.35 152.4 116.51C151.22 117.67 150.63 119.29 150.63 121.36C150.63 123.49 151.14 125.13 152.16 126.27C153.18 127.41 154.66 127.98 156.6 127.98C157.36 127.98 158.1 127.92 158.83 127.82C159.56 127.71 160.34 127.52 161.17 127.25L161.17 120.59L156.07 120.59L156.07 122.85ZM177.37 125.55L172.7 125.55L172.7 122.24L177.05 122.24L177.05 120.01L172.7 120.01L172.7 117.19L177.37 117.19L177.37 114.95L169.98 114.95L169.98 127.8L177.37 127.8L177.37 125.55ZM82.61 0.53L133.98 0.53C142.75 0.53 149.86 7.65 149.86 16.44L149.86 24.91L66.72 24.91L66.72 16.44C66.72 7.65 73.84 0.53 82.61 0.53ZM82.61 12.98L133.98 12.98C135.73 12.98 137.16 14.41 137.16 16.16L137.16 24.91L79.43 24.91L79.43 16.16C79.43 14.41 80.86 12.98 82.61 12.98ZM4.5 80.81C4.5 80.81 12.69 89.29 20.12 92.74C27.56 96.18 28.07 96.18 28.07 96.18C28.07 96.18 32.7 97.84 36.01 98.83C39.32 99.82 43.71 100.29 47.92 100.95C52.14 101.61 58.16 101.66 61.16 101.74C64.16 101.82 68.05 102.01 73.64 101.49C79.29 100.96 75.79 101.5 86.32 99.36C96.86 97.21 97.23 97.44 105.38 94.59C113.54 91.74 117.72 90.53 122.59 88.5C127.46 86.47 133.62 83.6 138.74 81.08C143.87 78.55 167.6 64.65 167.6 64.65L163.37 60.68C163.37 60.68 165.01 58.41 166.28 58.56C167.55 58.71 174.22 60.15 174.22 60.15L183.23 54.58L161.25 34.18C161.25 34.18 160.6 32.7 161.78 32.32C162.96 31.95 163.69 31.43 165.49 31.26C167.29 31.1 167.04 30.37 169.19 31.53C171.35 32.69 193.55 46.9 193.55 46.9L203.61 38.95C203.61 38.95 206.96 37.77 208.38 39.21C209.8 40.66 209.97 42.93 209.17 43.72C208.38 44.51 197 53.52 197 53.52C197 53.52 206.63 73.85 206.53 75.25C206.43 76.65 206.25 78 205.2 79.49C204.16 80.98 204.6 81.39 203.35 81.87C202.1 82.35 187.46 60.15 187.46 60.15C187.46 60.15 177.41 66.89 172.9 69.68C168.39 72.48 165.92 73.81 160.72 76.84C155.52 79.87 151.4 81.84 145.89 84.52C140.39 87.2 138.93 87.85 134.51 89.82C130.08 91.79 126.41 93.34 122.86 94.59C119.3 95.84 116.72 96.77 112 98.3C107.28 99.83 104.97 100.59 99.56 101.74C94.14 102.9 92.23 103.45 89.23 103.86C86.24 104.27 83.46 104.99 81.02 105.19C78.59 105.38 75.72 105.4 72.28 105.72C68.85 106.04 64.24 105.92 60.63 105.72C57.02 105.52 52.59 105.17 49.51 104.66C46.44 104.14 40.05 102.94 37.07 101.74C34.09 100.55 26.53 98.51 24.36 97.24C22.19 95.97 14.88 91.93 13.5 90.62C12.13 89.3 4.5 80.81 4.5 80.81Z" />" />
</g>

<g class="badge" style="display: none">
    <circle cx="189" cy="64" r="64" fill="#bc2031" />
    <text x="189" y="112" text-anchor="middle" fill="#ffffff" style="font: caption; font-size: 128px"></text>
</g>

<g class="status">
    <circle cx="220" cy="220" r="24" style="display: none" />
    <path class="away" fill="#DB2323" d="M128 70C96 70 70 96 70 128s26 58 58 58c32 0 58-26 58-58S160 70 128 70zM128 171c-24 0-43-19-43-43S104 85 128 85s43 19 43 43S152 171 128 171zM164 128c0 4-3 7-7 7H128c-4 0-7-3-7-7V99c0-4 3-7 7-7s7 3 7 7v22h22C161 121 164 124 164 128z" style="display: none" />
    <path class="busy" fill="#DB2323" d="M128 70c-32 0-58 26-58 58s26 58 58 58 58-26 58-58-26-58-58-58zm43 58c0 9-3 18-8 25l-60-60c7-5 16-8 25-8 24 0 43 19 43 43zm-86 0c0-9 3-18 8-25l60 60c-7 5-16 8-25 8-24 0-43-19-43-43z" style="display: none" />
</g>
</svg>
